<svg height="12px" width="12px" xmlns="http://www.w3.org/2000/svg"><g fill="none" fill-rule="evenodd" stroke="none" stroke-linecap="square" stroke-linejoin="bevel"><path d="m5 0h2c2.76143 0 5 2.23857 5 5v2c0 2.76143-2.23857 5-5 5h-2c-2.76143 0-5-2.23857-5-5v-2c0-2.76143 2.23857-5 5-5m1 2c2.20914 0 4 1.79086 4 4s-1.79086 4-4 4-4-1.79086-4-4 1.79086-4 4-4" fill="#434c5e"/><path d="m5 1h2c2.20914 0 4 1.79086 4 4v2c0 2.20914-1.79086 4-4 4h-2c-2.20914 0-4-1.79086-4-4v-2c0-2.20914 1.79086-4 4-4" fill="#3b4252"/></g></svg>